PathFileType	4	(X/Y/Z)	D:\Share\Shared_Data\Ergonomics\Sit To Stand Pertubation\S2\Unperturbed.trc
DataRate	CameraRate	NumFrames	NumMarkers	Units	OrigDataRate	OrigDataStartFrame	OrigNumFrames	
100	100	13	18	m	100	2839	261
Frame#	Time	R_Toe			R_ASIS			R_Pelvis			V_Sacral			L_Pelvis			L_ASIS			Clavical			R_Acromium			L_Acromium			Sternum			Torso			R_Thigh_Med			R_Thigh_Lat			R_Thigh			R_Shank_Med			R_Shank_Lat			R_Shank			R_Heel			
		X1	Y1	Z1	X2	Y2	Z2	X3	Y3	Z3	X4	Y4	Z4	X5	Y5	Z5	X6	Y6	Z6	X7	Y7	Z7	X8	Y8	Z8	X9	Y9	Z9	X10	Y10	Z10	X11	Y11	Z11	X12	Y12	Z12	X13	Y13	Z13	X14	Y14	Z14	X15	Y15	Z15	X16	Y16	Z16	X17	Y17	Z17	X18	Y18	Z18	

2839	28.38	0.44215091	0.063753918	0.14535077	0.46326245	1.0279271	0.13734767	0.38799789	1.0281041	0.17962169	0.2460174	1.0269974	0.017578575	0.34194101	1.033068	-0.163563	0.43917294	1.04098	-0.137035	0.43491006	1.456912	-0.0088277216	0.34142261	1.4766838	0.20154279	0.31211786	1.4804434	-0.18647716	0.49216754	1.301741	-0.015023763	0.43835977	1.4169825	-0.12549396	0.35724963	0.49350659	0.087120461	0.35087131	0.51898199	0.17598555	0.45414862	0.67620117	0.15088507	0.30782141	0.10573484	0.10481715	0.28599976	0.1034272	0.19619337	0.31385669	0.37622955	0.21102921	0.20565231	0.063222183	0.15185777
2840	28.39	0.44215009	0.063750172	0.14536906	0.46355853	1.0278448	0.13753119	0.38827243	1.0280245	0.1797605	0.24641095	1.0268883	0.017547049	0.34241083	1.0329154	-0.16350272	0.43976318	1.0408457	-0.13687555	0.43480649	1.4567975	-0.0088058777	0.34105508	1.4765143	0.20144072	0.31220731	1.480183	-0.18659561	0.49219418	1.3016747	-0.014888075	0.43840872	1.4168306	-0.12545703	0.35723865	0.49347247	0.087212585	0.35083963	0.51894836	0.17607915	0.45426691	0.6761001	0.15110132	0.30782275	0.10573116	0.10484974	0.28597998	0.10339952	0.19620441	0.31380051	0.37621597	0.2110932	0.20565134	0.06320636	0.15186411
2841	28.4	0.44214658	0.063750698	0.14538458	0.46383673	1.0277618	0.13770802	0.38853891	1.0279479	0.17990907	0.24677901	1.0267838	0.017537312	0.34285782	1.032764	-0.16342754	0.44033533	1.0407219	-0.13671202	0.43468436	1.4566848	-0.008769681	0.34065973	1.4763252	0.20134691	0.31226913	1.4799269	-0.18669847	0.49220325	1.301606	-0.014750549	0.43843988	1.4166869	-0.12540894	0.35716821	0.49344348	0.08730854	0.35076212	0.51891748	0.1761815	0.45434308	0.67599457	0.15128812	0.30781931	0.10573022	0.10488941	0.28595453	0.1033688	0.19622374	0.31370715	0.37620346	0.2111655	0.20564632	0.06318652	0.15187556
2842	28.41	0.44214056	0.063755692	0.14539754	0.46409402	1.0276821	0.13787788	0.38879272	1.0278752	0.18006305	0.24712041	1.0266835	0.017546225	0.34327927	1.0326193	-0.16333865	0.44087982	1.0406111	-0.13654803	0.43454193	1.4565786	-0.0087212868	0.34024066	1.4761292	0.20126323	0.31230029	1.4796818	-0.18678801	0.49219379	1.3015402	-0.014613813	0.43845166	1.4165579	-0.12535067	0.35704971	0.49342041	0.087402969	0.35064658	0.5188894	0.17628784	0.4543782	0.67588782	0.15143689	0.30781143	0.1057317	0.10493263	0.28592371	0.10333662	0.1962476	0.31358154	0.3761929	0.21124281	0.20563821	0.063163853	0.1518896
2843	28.42	0.44213245	0.063764832	0.14540831	0.46432565	1.02761	0.13804031	0.38902744	1.0278074	0.18021886	0.24743307	1.0265841	0.017570072	0.34367047	1.0324843	-0.16323877	0.44138116	1.0405128	-0.13638777	0.43437903	1.4564811	-0.0086629171	0.33980316	1.4759376	0.20119252	0.3123006	1.4794534	-0.18686557	0.49216531	1.3014816	-0.01447893	0.43844354	1.4164474	-0.12528338	0.35689859	0.49340292	0.087491051	0.35050433	0.51886389	0.17639371	0.45437656	0.67578436	0.1515442	0.30779987	0.10573467	0.10497646	0.28588849	0.10330423	0.19627286	0.31343301	0.37618417	0.21132249	0.2056281	0.0631395	0.15190347
2844	28.43	0.44212286	0.063777275	0.14541714	0.46452594	1.0275479	0.13819487	0.3892355	1.0277451	0.18037372	0.24771425	1.0264823	0.017603643	0.3440264	1.0323622	-0.16313133	0.4418186	1.0404232	-0.13623488	0.43419678	1.4563932	-0.008596693	0.33935291	1.4757587	0.20113602	0.31227209	1.4792468	-0.18693141	0.49211755	1.3014335	-0.014345642	0.43841565	1.4163567	-0.12520824	0.35673218	0.4933895	0.087569298	0.35034875	0.51884064	0.17649539	0.45434546	0.6756889	0.15161174	0.30778571	0.10573803	0.10501878	0.28585052	0.10327269	0.19629732	0.31327356	0.37617676	0.21140244	0.20561685	0.06311454	0.15191455
2845	28.44	0.44211258	0.063791698	0.1454241	0.46468878	1.027498	0.13834143	0.38940936	1.0276901	0.18052551	0.24796063	1.0263755	0.017640711	0.34434384	1.0322542	-0.16301971	0.44216867	1.0403358	-0.13609222	0.43399713	1.4563149	-0.0085244694	0.33889484	1.4755968	0.20109258	0.31221951	1.479067	-0.1869855	0.49205002	1.3013967	-0.014212805	0.43836865	1.4162844	-0.12512643	0.35656735	0.49337836	0.087636383	0.35019366	0.51881927	0.17659021	0.4542951	0.67560651	0.15164619	0.30777014	0.10574072	0.10505816	0.28581174	0.10324289	0.19631979	0.31311606	0.37616995	0.21148067	0.2056053	0.06308987	0.15192117
2846	28.45	0.44210229	0.063806458	0.1454295	0.46480933	1.0274622	0.13848044	0.38954269	1.0276433	0.18067256	0.24816913	1.0262625	0.01767535	0.34462186	1.0321597	-0.16290692	0.4424104	1.0402422	-0.13596173	0.43378259	1.4562451	-0.0084476051	0.33843271	1.4754532	0.20105917	0.31214926	1.4789166	-0.18702812	0.49196198	1.301371	-0.014078676	0.43830347	1.4162291	-0.12503895	0.3564183	0.49336816	0.087693245	0.35005206	0.51880005	0.17667647	0.45423688	0.67554089	0.15165804	0.30775449	0.10574211	0.10509362	0.28577396	0.10321553	0.19633978	0.31297263	0.37616309	0.21155522	0.20559436	0.063066257	0.15192279
2847	28.46	0.44209268	0.063819855	0.14543413	0.46488498	1.0274407	0.1386134	0.38963126	1.0276057	0.18081342	0.24833765	1.0261432	0.017702808	0.34486194	1.0320776	-0.16279547	0.4425322	1.0401367	-0.13584425	0.43355557	1.456183	-0.0083667622	0.3379689	1.4753271	0.20103273	0.31206781	1.4787968	-0.18705995	0.49185291	1.3013551	-0.013941294	0.43822113	1.4161879	-0.12494649	0.35629675	0.49335803	0.087742294	0.34993466	0.51878271	0.1767534	0.4541817	0.67549445	0.15165985	0.30774048	0.10574207	0.10512453	0.28573926	0.10319135	0.19635722	0.31285315	0.37615585	0.21162396	0.20558493	0.063044353	0.1519201
2848	28.47	0.4420842	0.063830555	0.14543893	0.46491568	1.0274336	0.13874248	0.38967267	1.0275773	0.18094704	0.24846579	1.0260203	0.017719948	0.34506744	1.0320059	-0.16268761	0.44254166	1.0400193	-0.13573874	0.43331741	1.4561283	-0.0082819805	0.33750558	1.4752164	0.2010112	0.31198047	1.4787058	-0.18708205	0.49172238	1.3013477	-0.013799148	0.43812296	1.4161584	-0.12484946	0.35621072	0.49334811	0.087786514	0.34984885	0.5187674	0.17682104	0.45413791	0.67546765	0.15166447	0.30772968	0.10574097	0.10515047	0.28570947	0.10317101	0.19637202	0.31276401	0.37614786	0.21168475	0.20557767	0.063024803	0.15191473
2849	28.48	0.44207709	0.063838085	0.14544453	0.46490399	1.0274396	0.13886992	0.38966672	1.0275583	0.1810726	0.24855501	1.0258967	0.017725433	0.34524237	1.0319419	-0.16258548	0.44247269	1.0398992	-0.1356414	0.43306897	1.4560806	-0.0081931543	0.33704382	1.4751193	0.20099463	0.31189072	1.4786405	-0.18709601	0.49157089	1.3013466	-0.013651809	0.43801053	1.4161381	-0.12474807	0.35616431	0.4933389	0.087829216	0.34979755	0.51875397	0.17688007	0.45411032	0.67545966	0.15168335	0.30772311	0.10573936	0.1051713	0.2856857	0.10315472	0.196384	0.31270789	0.37613913	0.21173582	0.20557269	0.063008324	0.15190846
2850	28.49	0.44207135	0.06384296	0.14545079	0.46485385	1.0274573	0.13899736	0.38961551	1.0275479	0.18118916	0.24860847	1.0257762	0.017719151	0.34538947	1.0318835	-0.16249123	0.44237515	1.03979	-0.13554741	0.43281073	1.4560388	-0.0081003418	0.3365835	1.4750342	0.2009843	0.31180038	1.478597	-0.18710397	0.49139954	1.3013502	-0.013500052	0.43788574	1.4161246	-0.12464262	0.35615683	0.49333167	0.087874107	0.34977994	0.51874225	0.1769317	0.4540997	0.67546857	0.15172522	0.30772107	0.10573783	0.1051871	0.28566794	0.10314209	0.19639281	0.31268362	0.37612979	0.21177661	0.20556953	0.062995537	0.15190266
2851	28.5	0.44206647	0.063846104	0.14545724	0.46476999	1.0274841	0.13912535	0.38952377	1.0275447	0.18129507	0.24863071	1.025662	0.017701288	0.34550897	1.0318285	-0.16240668	0.44229016	1.0397014	-0.13545361	0.43254352	1.4560028	-0.0080038204	0.3361235	1.4749607	0.20098151	0.31170953	1.4785699	-0.18710794	0.49121036	1.301358	-0.013345492	0.43775061	1.4161162	-0.12453369	0.3561843	0.49332782	0.087925148	0.34979196	0.5187326	0.17697749	0.45410376	0.67549164	0.15179533	0.30772336	0.10573695	0.10519851	0.28565518	0.10313224	0.19639813	0.31268689	0.37612021	0.21180759	0.20556744	0.062986599	0.15189803
